<mxfile host="app.diagrams.net" modified="2024-05-22T19:48:44.927Z" agent="Mozilla/5.0 (Windows NT 10.0; Win64; x64; rv:126.0) Gecko/20100101 Firefox/126.0" etag="fu10udrhG8MRVG4vcOk7" version="24.4.6" type="github">
  <diagram id="prtHgNgQTEPvFCAcTncT" name="Page-1">
    <mxGraphModel dx="2049" dy="6958" grid="0" gridSize="10" guides="1" tooltips="1" connect="1" arrows="1" fold="1" page="1" pageScale="1" pageWidth="827" pageHeight="1169" background="none" math="0" shadow="0">
      <root>
        <mxCell id="0" />
        <mxCell id="1" parent="0" />
        <mxCell id="vdoab_yicsTFZKbGhMKv-17" value="&lt;font style=&quot;font-size: 16px;&quot;&gt;Aktivitetsdiagram af FOG&lt;/font&gt; TO-BE" style="swimlane;childLayout=stackLayout;resizeParent=1;resizeParentMax=0;startSize=20;html=1;" parent="1" vertex="1">
          <mxGeometry x="15" y="-5845" width="761.26" height="1309" as="geometry" />
        </mxCell>
        <mxCell id="vdoab_yicsTFZKbGhMKv-18" value="&lt;u&gt;Kunde&lt;/u&gt;" style="swimlane;startSize=50;html=1;swimlaneFillColor=#B9E0A5;strokeColor=default;gradientColor=none;fillColor=default;" parent="vdoab_yicsTFZKbGhMKv-17" vertex="1">
          <mxGeometry y="20" width="473.26" height="1289" as="geometry" />
        </mxCell>
        <mxCell id="LRvEH867ZsMy1Cgo_DxR-12" style="edgeStyle=orthogonalEdgeStyle;rounded=0;orthogonalLoop=1;jettySize=auto;html=1;" edge="1" parent="vdoab_yicsTFZKbGhMKv-18" source="LRvEH867ZsMy1Cgo_DxR-8">
          <mxGeometry relative="1" as="geometry">
            <mxPoint x="378" y="127" as="targetPoint" />
            <Array as="points">
              <mxPoint x="378" y="111" />
              <mxPoint x="378" y="111" />
            </Array>
          </mxGeometry>
        </mxCell>
        <mxCell id="LRvEH867ZsMy1Cgo_DxR-14" value="" style="edgeStyle=orthogonalEdgeStyle;rounded=0;orthogonalLoop=1;jettySize=auto;html=1;" edge="1" parent="vdoab_yicsTFZKbGhMKv-18" target="LRvEH867ZsMy1Cgo_DxR-13">
          <mxGeometry relative="1" as="geometry">
            <mxPoint x="215.01" y="128" as="sourcePoint" />
          </mxGeometry>
        </mxCell>
        <mxCell id="LRvEH867ZsMy1Cgo_DxR-11" value="" style="line;strokeWidth=1;fillColor=none;align=left;verticalAlign=middle;spacingTop=-1;spacingLeft=3;spacingRight=3;rotatable=0;labelPosition=right;points=[];portConstraint=eastwest;strokeColor=inherit;" vertex="1" parent="vdoab_yicsTFZKbGhMKv-18">
          <mxGeometry x="140.01" y="124" width="173.25" height="8" as="geometry" />
        </mxCell>
        <mxCell id="LRvEH867ZsMy1Cgo_DxR-38" style="edgeStyle=orthogonalEdgeStyle;rounded=0;orthogonalLoop=1;jettySize=auto;html=1;entryX=0;entryY=0.75;entryDx=0;entryDy=0;" edge="1" parent="vdoab_yicsTFZKbGhMKv-18" source="LRvEH867ZsMy1Cgo_DxR-13" target="LRvEH867ZsMy1Cgo_DxR-26">
          <mxGeometry relative="1" as="geometry">
            <Array as="points">
              <mxPoint x="37" y="170" />
              <mxPoint x="37" y="450" />
            </Array>
          </mxGeometry>
        </mxCell>
        <mxCell id="LRvEH867ZsMy1Cgo_DxR-13" value="&lt;div align=&quot;right&quot;&gt;Login&lt;br&gt;&lt;/div&gt;" style="rounded=1;whiteSpace=wrap;html=1;align=left;strokeWidth=1;labelBackgroundColor=default;spacingTop=-1;spacingLeft=3;spacingRight=3;" vertex="1" parent="vdoab_yicsTFZKbGhMKv-18">
          <mxGeometry x="84" y="151" width="90.01" height="38" as="geometry" />
        </mxCell>
        <mxCell id="LRvEH867ZsMy1Cgo_DxR-8" value="&lt;font style=&quot;font-size: 11px;&quot;&gt;START&lt;/font&gt;" style="ellipse;whiteSpace=wrap;html=1;" vertex="1" parent="vdoab_yicsTFZKbGhMKv-18">
          <mxGeometry x="361" y="64" width="39.5" height="34" as="geometry" />
        </mxCell>
        <mxCell id="LRvEH867ZsMy1Cgo_DxR-21" value="" style="edgeStyle=orthogonalEdgeStyle;rounded=0;orthogonalLoop=1;jettySize=auto;html=1;" edge="1" parent="vdoab_yicsTFZKbGhMKv-18" source="LRvEH867ZsMy1Cgo_DxR-17" target="LRvEH867ZsMy1Cgo_DxR-20">
          <mxGeometry relative="1" as="geometry" />
        </mxCell>
        <mxCell id="LRvEH867ZsMy1Cgo_DxR-17" value="Opret bruger" style="whiteSpace=wrap;html=1;align=left;rounded=1;strokeWidth=1;labelBackgroundColor=default;spacingTop=-1;spacingLeft=3;spacingRight=3;" vertex="1" parent="vdoab_yicsTFZKbGhMKv-18">
          <mxGeometry x="198.32" y="151" width="95.36" height="45" as="geometry" />
        </mxCell>
        <mxCell id="LRvEH867ZsMy1Cgo_DxR-19" value="" style="endArrow=classic;html=1;rounded=0;exitX=0.196;exitY=0.625;exitDx=0;exitDy=0;exitPerimeter=0;" edge="1" parent="vdoab_yicsTFZKbGhMKv-18">
          <mxGeometry width="50" height="50" relative="1" as="geometry">
            <mxPoint x="248.9670000000001" y="129" as="sourcePoint" />
            <mxPoint x="249" y="150" as="targetPoint" />
          </mxGeometry>
        </mxCell>
        <mxCell id="LRvEH867ZsMy1Cgo_DxR-23" value="" style="edgeStyle=orthogonalEdgeStyle;rounded=0;orthogonalLoop=1;jettySize=auto;html=1;" edge="1" parent="vdoab_yicsTFZKbGhMKv-18" source="LRvEH867ZsMy1Cgo_DxR-20" target="LRvEH867ZsMy1Cgo_DxR-22">
          <mxGeometry relative="1" as="geometry" />
        </mxCell>
        <mxCell id="LRvEH867ZsMy1Cgo_DxR-20" value="udfyld kontaktoplysninger" style="whiteSpace=wrap;html=1;align=left;rounded=1;strokeWidth=1;labelBackgroundColor=default;spacingTop=-1;spacingLeft=3;spacingRight=3;" vertex="1" parent="vdoab_yicsTFZKbGhMKv-18">
          <mxGeometry x="186" y="236" width="120" height="60" as="geometry" />
        </mxCell>
        <mxCell id="LRvEH867ZsMy1Cgo_DxR-24" style="edgeStyle=orthogonalEdgeStyle;rounded=0;orthogonalLoop=1;jettySize=auto;html=1;entryX=0.5;entryY=1;entryDx=0;entryDy=0;" edge="1" parent="vdoab_yicsTFZKbGhMKv-18" source="LRvEH867ZsMy1Cgo_DxR-22" target="LRvEH867ZsMy1Cgo_DxR-13">
          <mxGeometry relative="1" as="geometry" />
        </mxCell>
        <mxCell id="LRvEH867ZsMy1Cgo_DxR-22" value="Gemt i database" style="shape=process;whiteSpace=wrap;html=1;backgroundOutline=1;align=left;rounded=1;strokeWidth=1;labelBackgroundColor=default;spacingTop=-1;spacingLeft=3;spacingRight=3;shadow=0;" vertex="1" parent="vdoab_yicsTFZKbGhMKv-18">
          <mxGeometry x="186" y="336" width="120" height="60" as="geometry" />
        </mxCell>
        <mxCell id="LRvEH867ZsMy1Cgo_DxR-28" value="" style="edgeStyle=orthogonalEdgeStyle;rounded=0;orthogonalLoop=1;jettySize=auto;html=1;" edge="1" parent="vdoab_yicsTFZKbGhMKv-18" source="LRvEH867ZsMy1Cgo_DxR-26" target="LRvEH867ZsMy1Cgo_DxR-27">
          <mxGeometry relative="1" as="geometry" />
        </mxCell>
        <mxCell id="LRvEH867ZsMy1Cgo_DxR-26" value="Vælg Carport dimensioner" style="rounded=1;whiteSpace=wrap;html=1;" vertex="1" parent="vdoab_yicsTFZKbGhMKv-18">
          <mxGeometry x="336" y="405" width="120" height="60" as="geometry" />
        </mxCell>
        <mxCell id="LRvEH867ZsMy1Cgo_DxR-30" value="" style="edgeStyle=orthogonalEdgeStyle;rounded=0;orthogonalLoop=1;jettySize=auto;html=1;" edge="1" parent="vdoab_yicsTFZKbGhMKv-18" source="LRvEH867ZsMy1Cgo_DxR-27" target="LRvEH867ZsMy1Cgo_DxR-29">
          <mxGeometry relative="1" as="geometry" />
        </mxCell>
        <mxCell id="LRvEH867ZsMy1Cgo_DxR-32" style="edgeStyle=orthogonalEdgeStyle;rounded=0;orthogonalLoop=1;jettySize=auto;html=1;entryX=1;entryY=0.5;entryDx=0;entryDy=0;" edge="1" parent="vdoab_yicsTFZKbGhMKv-18" source="LRvEH867ZsMy1Cgo_DxR-27" target="LRvEH867ZsMy1Cgo_DxR-17">
          <mxGeometry relative="1" as="geometry" />
        </mxCell>
        <mxCell id="LRvEH867ZsMy1Cgo_DxR-27" value="&lt;div&gt;Lav bestilling/forspørgsel&lt;br&gt;&lt;/div&gt;" style="whiteSpace=wrap;html=1;rounded=1;" vertex="1" parent="vdoab_yicsTFZKbGhMKv-18">
          <mxGeometry x="336" y="584" width="120" height="60" as="geometry" />
        </mxCell>
        <mxCell id="LRvEH867ZsMy1Cgo_DxR-49" value="" style="edgeStyle=orthogonalEdgeStyle;rounded=0;orthogonalLoop=1;jettySize=auto;html=1;exitX=0.5;exitY=1;exitDx=0;exitDy=0;" edge="1" parent="vdoab_yicsTFZKbGhMKv-18" source="LRvEH867ZsMy1Cgo_DxR-29" target="LRvEH867ZsMy1Cgo_DxR-48">
          <mxGeometry relative="1" as="geometry">
            <Array as="points">
              <mxPoint x="396" y="804" />
              <mxPoint x="329" y="804" />
              <mxPoint x="329" y="782" />
            </Array>
          </mxGeometry>
        </mxCell>
        <mxCell id="LRvEH867ZsMy1Cgo_DxR-61" style="edgeStyle=orthogonalEdgeStyle;rounded=0;orthogonalLoop=1;jettySize=auto;html=1;entryX=0;entryY=0.5;entryDx=0;entryDy=0;" edge="1" parent="vdoab_yicsTFZKbGhMKv-18" source="LRvEH867ZsMy1Cgo_DxR-29" target="LRvEH867ZsMy1Cgo_DxR-8">
          <mxGeometry relative="1" as="geometry">
            <Array as="points">
              <mxPoint x="16" y="735" />
              <mxPoint x="16" y="131" />
              <mxPoint x="107" y="131" />
              <mxPoint x="107" y="81" />
            </Array>
          </mxGeometry>
        </mxCell>
        <mxCell id="LRvEH867ZsMy1Cgo_DxR-29" value="Bestilling gemt i database" style="shape=process;whiteSpace=wrap;html=1;backgroundOutline=1;rounded=1;" vertex="1" parent="vdoab_yicsTFZKbGhMKv-18">
          <mxGeometry x="336" y="697" width="120" height="60" as="geometry" />
        </mxCell>
        <mxCell id="LRvEH867ZsMy1Cgo_DxR-48" value="Gemt på &quot;Min Side&quot;&lt;br&gt;Afventer godkendelse" style="shape=process;whiteSpace=wrap;html=1;backgroundOutline=1;rounded=1;" vertex="1" parent="vdoab_yicsTFZKbGhMKv-18">
          <mxGeometry x="186" y="752" width="120" height="60" as="geometry" />
        </mxCell>
        <mxCell id="LRvEH867ZsMy1Cgo_DxR-25" value="" style="endArrow=classic;html=1;rounded=0;entryX=0.5;entryY=0;entryDx=0;entryDy=0;" edge="1" parent="vdoab_yicsTFZKbGhMKv-18" target="LRvEH867ZsMy1Cgo_DxR-26">
          <mxGeometry width="50" height="50" relative="1" as="geometry">
            <mxPoint x="397" y="128" as="sourcePoint" />
            <mxPoint x="401" y="378" as="targetPoint" />
          </mxGeometry>
        </mxCell>
        <mxCell id="LRvEH867ZsMy1Cgo_DxR-62" value="" style="shape=waypoint;sketch=0;size=6;pointerEvents=1;points=[];fillColor=default;resizable=0;rotatable=0;perimeter=centerPerimeter;snapToPoint=1;rounded=1;strokeWidth=32;" vertex="1" parent="vdoab_yicsTFZKbGhMKv-18">
          <mxGeometry x="236.005" y="1238" width="20" height="20" as="geometry" />
        </mxCell>
        <mxCell id="vdoab_yicsTFZKbGhMKv-19" value="Admin" style="swimlane;startSize=50;html=1;swimlaneFillColor=#FFD966;" parent="vdoab_yicsTFZKbGhMKv-17" vertex="1">
          <mxGeometry x="473.26" y="20" width="288" height="1289" as="geometry" />
        </mxCell>
        <mxCell id="LRvEH867ZsMy1Cgo_DxR-40" value="" style="edgeStyle=orthogonalEdgeStyle;rounded=0;orthogonalLoop=1;jettySize=auto;html=1;" edge="1" parent="vdoab_yicsTFZKbGhMKv-19" source="LRvEH867ZsMy1Cgo_DxR-15" target="LRvEH867ZsMy1Cgo_DxR-39">
          <mxGeometry relative="1" as="geometry" />
        </mxCell>
        <mxCell id="LRvEH867ZsMy1Cgo_DxR-15" value="&lt;div align=&quot;center&quot;&gt;Login&lt;/div&gt;" style="rounded=1;whiteSpace=wrap;html=1;align=center;strokeWidth=1;labelBackgroundColor=default;spacingTop=-1;spacingLeft=3;spacingRight=3;" vertex="1" parent="vdoab_yicsTFZKbGhMKv-19">
          <mxGeometry x="107.745" y="164" width="90" height="40" as="geometry" />
        </mxCell>
        <mxCell id="LRvEH867ZsMy1Cgo_DxR-43" value="" style="edgeStyle=orthogonalEdgeStyle;rounded=0;orthogonalLoop=1;jettySize=auto;html=1;" edge="1" parent="vdoab_yicsTFZKbGhMKv-19" source="LRvEH867ZsMy1Cgo_DxR-36" target="LRvEH867ZsMy1Cgo_DxR-42">
          <mxGeometry relative="1" as="geometry" />
        </mxCell>
        <mxCell id="LRvEH867ZsMy1Cgo_DxR-36" value="Modtager forspørgsel" style="shape=process;whiteSpace=wrap;html=1;backgroundOutline=1;rounded=1;" vertex="1" parent="vdoab_yicsTFZKbGhMKv-19">
          <mxGeometry x="92.745" y="584" width="120" height="60" as="geometry" />
        </mxCell>
        <mxCell id="LRvEH867ZsMy1Cgo_DxR-41" style="edgeStyle=orthogonalEdgeStyle;rounded=0;orthogonalLoop=1;jettySize=auto;html=1;" edge="1" parent="vdoab_yicsTFZKbGhMKv-19" source="LRvEH867ZsMy1Cgo_DxR-39" target="LRvEH867ZsMy1Cgo_DxR-36">
          <mxGeometry relative="1" as="geometry" />
        </mxCell>
        <mxCell id="LRvEH867ZsMy1Cgo_DxR-39" value="Admin&lt;div&gt;&lt;br/&gt;&lt;/div&gt;" style="whiteSpace=wrap;html=1;rounded=1;strokeWidth=1;labelBackgroundColor=default;spacingTop=-1;spacingLeft=3;spacingRight=3;" vertex="1" parent="vdoab_yicsTFZKbGhMKv-19">
          <mxGeometry x="92.745" y="274" width="120" height="60" as="geometry" />
        </mxCell>
        <mxCell id="LRvEH867ZsMy1Cgo_DxR-57" value="" style="edgeStyle=orthogonalEdgeStyle;rounded=0;orthogonalLoop=1;jettySize=auto;html=1;" edge="1" parent="vdoab_yicsTFZKbGhMKv-19" source="LRvEH867ZsMy1Cgo_DxR-42" target="LRvEH867ZsMy1Cgo_DxR-56">
          <mxGeometry relative="1" as="geometry" />
        </mxCell>
        <mxCell id="LRvEH867ZsMy1Cgo_DxR-42" value="Godkender forspørgsel" style="whiteSpace=wrap;html=1;rounded=1;" vertex="1" parent="vdoab_yicsTFZKbGhMKv-19">
          <mxGeometry x="92.745" y="855" width="120" height="60" as="geometry" />
        </mxCell>
        <mxCell id="LRvEH867ZsMy1Cgo_DxR-44" value="Godkendt" style="shape=process;whiteSpace=wrap;html=1;backgroundOutline=1;rounded=1;" vertex="1" parent="vdoab_yicsTFZKbGhMKv-19">
          <mxGeometry x="-287.255" y="855" width="120" height="60" as="geometry" />
        </mxCell>
        <mxCell id="LRvEH867ZsMy1Cgo_DxR-45" value="" style="edgeStyle=orthogonalEdgeStyle;rounded=0;orthogonalLoop=1;jettySize=auto;html=1;" edge="1" parent="vdoab_yicsTFZKbGhMKv-19" source="LRvEH867ZsMy1Cgo_DxR-42" target="LRvEH867ZsMy1Cgo_DxR-44">
          <mxGeometry relative="1" as="geometry" />
        </mxCell>
        <mxCell id="LRvEH867ZsMy1Cgo_DxR-52" value="Betal" style="whiteSpace=wrap;html=1;rounded=1;" vertex="1" parent="vdoab_yicsTFZKbGhMKv-19">
          <mxGeometry x="-287.255" y="973" width="120" height="60" as="geometry" />
        </mxCell>
        <mxCell id="LRvEH867ZsMy1Cgo_DxR-54" value="Se stykliste" style="whiteSpace=wrap;html=1;rounded=1;" vertex="1" parent="vdoab_yicsTFZKbGhMKv-19">
          <mxGeometry x="-287.255" y="1078" width="120" height="60" as="geometry" />
        </mxCell>
        <mxCell id="LRvEH867ZsMy1Cgo_DxR-53" value="" style="edgeStyle=orthogonalEdgeStyle;rounded=0;orthogonalLoop=1;jettySize=auto;html=1;" edge="1" parent="vdoab_yicsTFZKbGhMKv-19" source="LRvEH867ZsMy1Cgo_DxR-44" target="LRvEH867ZsMy1Cgo_DxR-52">
          <mxGeometry relative="1" as="geometry" />
        </mxCell>
        <mxCell id="LRvEH867ZsMy1Cgo_DxR-56" value="Sender stykliste" style="shape=process;whiteSpace=wrap;html=1;backgroundOutline=1;rounded=1;" vertex="1" parent="vdoab_yicsTFZKbGhMKv-19">
          <mxGeometry x="92.745" y="1078" width="120" height="60" as="geometry" />
        </mxCell>
        <mxCell id="LRvEH867ZsMy1Cgo_DxR-58" style="edgeStyle=orthogonalEdgeStyle;rounded=0;orthogonalLoop=1;jettySize=auto;html=1;entryX=1;entryY=0.5;entryDx=0;entryDy=0;" edge="1" parent="vdoab_yicsTFZKbGhMKv-19" source="LRvEH867ZsMy1Cgo_DxR-56" target="LRvEH867ZsMy1Cgo_DxR-54">
          <mxGeometry relative="1" as="geometry" />
        </mxCell>
        <mxCell id="LRvEH867ZsMy1Cgo_DxR-55" value="" style="edgeStyle=orthogonalEdgeStyle;rounded=0;orthogonalLoop=1;jettySize=auto;html=1;" edge="1" parent="vdoab_yicsTFZKbGhMKv-19" source="LRvEH867ZsMy1Cgo_DxR-52" target="LRvEH867ZsMy1Cgo_DxR-54">
          <mxGeometry relative="1" as="geometry" />
        </mxCell>
        <mxCell id="LRvEH867ZsMy1Cgo_DxR-16" value="" style="edgeStyle=orthogonalEdgeStyle;rounded=0;orthogonalLoop=1;jettySize=auto;html=1;" edge="1" parent="vdoab_yicsTFZKbGhMKv-17" source="LRvEH867ZsMy1Cgo_DxR-11" target="LRvEH867ZsMy1Cgo_DxR-15">
          <mxGeometry relative="1" as="geometry">
            <Array as="points">
              <mxPoint x="628" y="148" />
            </Array>
          </mxGeometry>
        </mxCell>
        <mxCell id="LRvEH867ZsMy1Cgo_DxR-37" value="" style="edgeStyle=orthogonalEdgeStyle;rounded=0;orthogonalLoop=1;jettySize=auto;html=1;" edge="1" parent="vdoab_yicsTFZKbGhMKv-17" source="LRvEH867ZsMy1Cgo_DxR-27" target="LRvEH867ZsMy1Cgo_DxR-36">
          <mxGeometry relative="1" as="geometry" />
        </mxCell>
        <mxCell id="LRvEH867ZsMy1Cgo_DxR-51" style="edgeStyle=orthogonalEdgeStyle;rounded=0;orthogonalLoop=1;jettySize=auto;html=1;" edge="1" parent="vdoab_yicsTFZKbGhMKv-17" source="LRvEH867ZsMy1Cgo_DxR-48" target="LRvEH867ZsMy1Cgo_DxR-44">
          <mxGeometry relative="1" as="geometry" />
        </mxCell>
        <mxCell id="LRvEH867ZsMy1Cgo_DxR-63" value="" style="edgeStyle=orthogonalEdgeStyle;rounded=0;orthogonalLoop=1;jettySize=auto;html=1;" edge="1" parent="vdoab_yicsTFZKbGhMKv-17" source="LRvEH867ZsMy1Cgo_DxR-54" target="LRvEH867ZsMy1Cgo_DxR-62">
          <mxGeometry relative="1" as="geometry" />
        </mxCell>
      </root>
    </mxGraphModel>
  </diagram>
</mxfile>
